<svg width="64" height="65" viewBox="0 0 64 65" fill="none" xmlns="http://www.w3.org/2000/svg">
<path d="M2.88231 33.0909C-0.0798395 33.0909 -0.0798395 33.0909 0.0342357 30.5999C0.779527 14.8714 14.7119 1.45167 30.7091 0.999788C31.7015 0.96941 32.0247 1.17067 32.078 2.19215C32.2719 6.05782 32.3099 6.05782 28.4732 6.55147C16.0504 8.15773 6.08403 18.6269 5.42999 30.9986C5.32352 33.4213 4.06489 33.2238 2.88231 33.0909Z" fill="#CFC6FF"/>
<path d="M61.3193 32.9924C64.1141 32.9924 64.1141 32.9924 63.9354 35.6961C62.9201 51.1018 49.4022 64.3849 34.1846 64.9924C32.5761 65.0532 31.8042 64.8329 31.9031 62.9267C32.078 59.923 31.9411 59.9154 34.9223 59.5661C47.9344 58.0471 57.9617 47.4754 58.5929 34.481C58.726 31.9595 60.5017 33.4367 61.3193 32.9924Z" fill="#CFC6FF"/>
<path d="M48.7176 2.53791C41.1392 2.46197 34.8195 8.73134 34.7928 16.3526C34.7967 19.0756 35.6074 21.7365 37.1228 24.0003C38.6382 26.264 40.7906 28.0293 43.3088 29.0737C45.827 30.1181 48.5983 30.395 51.2738 29.8694C53.9492 29.3438 56.4091 28.0393 58.3435 26.1202C60.2779 24.201 61.6004 21.7532 62.1442 19.0849C62.6881 16.4166 62.4291 13.6472 61.3999 11.1257C60.3706 8.60411 58.6171 6.44312 56.3603 4.91492C54.1035 3.38672 51.4443 2.55965 48.7176 2.53791ZM48.6416 24.8548C44.0025 24.8548 40.1049 21.0347 40.0783 16.4741C40.1062 14.2052 41.0245 12.0378 42.6358 10.4379C44.2471 8.83802 46.4227 7.93347 48.6948 7.91871C50.9437 7.92576 53.0978 8.82469 54.683 10.4177C56.2682 12.0108 57.1548 14.1675 57.1478 16.4133C57.1407 18.6592 56.2406 20.8102 54.6454 22.3933C53.0501 23.9764 50.8905 24.8618 48.6416 24.8548Z" fill="#CFC6FF"/>
<path d="M20.948 30.8356H16.0047C14.6358 44.4034 2.15601 44.9122 2.15601 44.9122V49.8184C16.1759 50.912 15.7766 63.4887 15.7766 63.4887L20.9594 63.428C21.3397 50.9386 34.2682 49.8184 34.2682 49.8184L34.1883 44.8439C20.9138 43.5794 20.948 30.8356 20.948 30.8356ZM18.3509 52.6056C17.347 49.0399 16.5333 48.2273 12.9627 47.2248C16.5333 46.2223 17.347 45.4097 18.3509 41.844C19.3547 45.4287 20.1533 46.2223 23.739 47.2248C20.1533 48.2273 19.3547 49.0399 18.3509 52.6056Z" fill="#CFC6FF"/>
</svg>
