<svg width="96" height="96" viewBox="0 0 96 96" fill="none" xmlns="http://www.w3.org/2000/svg">
<path d="M51.02 25.9788C44.7261 25.9788 38.69 28.479 34.2396 32.9294C29.7892 37.3799 27.2889 43.4159 27.2889 49.7098C27.2889 56.0037 29.7892 62.0398 34.2396 66.4902C38.69 70.9406 44.7261 73.4409 51.02 73.4409C57.3139 73.4409 63.35 70.9406 67.8004 66.4902C72.2508 62.0398 74.7511 56.0037 74.7511 49.7098C74.7511 43.4159 72.2508 37.3799 67.8004 32.9294C63.35 28.479 57.3139 25.9788 51.02 25.9788ZM84.2435 49.7098C84.2435 58.5212 80.7432 66.9718 74.5125 73.2024C68.2819 79.433 59.8314 82.9333 51.02 82.9333C42.2086 82.9333 33.7581 79.433 27.5274 73.2024C21.2968 66.9718 17.7965 58.5212 17.7965 49.7098C17.7965 40.8984 21.2968 32.4479 27.5274 26.2173C33.7581 19.9866 42.2086 16.4863 51.02 16.4863C59.8314 16.4863 68.2819 19.9866 74.5125 26.2173C80.7432 32.4479 84.2435 40.8984 84.2435 49.7098Z" fill="#307BC1"/>
<path d="M45.7235 23.9924C39.4296 23.9924 33.3935 26.4927 28.9431 30.9431C24.4927 35.3935 21.9924 41.4296 21.9924 47.7235C21.9924 54.0174 24.4927 60.0534 28.9431 64.5039C33.3935 68.9543 39.4296 71.4545 45.7235 71.4545C52.0174 71.4545 58.0534 68.9543 62.5039 64.5039C66.9543 60.0534 69.4545 54.0174 69.4545 47.7235C69.4545 41.4296 66.9543 35.3935 62.5039 30.9431C58.0534 26.4927 52.0174 23.9924 45.7235 23.9924ZM78.947 47.7235C78.947 56.5349 75.4467 64.9854 69.216 71.216C62.9854 77.4467 54.5349 80.947 45.7235 80.947C36.9121 80.947 28.4615 77.4467 22.2309 71.216C16.0003 64.9854 12.5 56.5349 12.5 47.7235C12.5 38.9121 16.0003 30.4615 22.2309 24.2309C28.4615 18.0003 36.9121 14.5 45.7235 14.5C54.5349 14.5 62.9854 18.0003 69.216 24.2309C75.4467 30.4615 78.947 38.9121 78.947 47.7235Z" fill="#69B7FF"/>
</svg>
